<svg width="112" height="35" viewBox="0 0 112 35" fill="none" xmlns="http://www.w3.org/2000/svg">
<path d="M27.9756 5.32482C24.8065 4.73104 25.2383 0.0642529 28.4626 0.0618384L108.551 0.00186304C110.017 0.000765296 111.206 1.1882 111.207 2.65406L111.217 17.2219L111.228 31.7897C111.229 33.2555 110.041 34.4448 108.575 34.4459L38.7527 34.4982C35.5225 34.5006 35.0915 29.8221 38.2677 29.2342L44.6371 28.0551C47.4189 27.5401 47.5724 23.6111 44.8392 22.8809L34.9853 20.2485C32.71 19.6406 32.2947 16.5908 34.3246 15.3965L39.6699 12.2518C41.7843 11.0079 41.2242 7.80719 38.813 7.35541L27.9756 5.32482Z" fill="#9477FF"/>
<path d="M67.6187 29.3532C70.3572 30.4163 69.5958 34.4817 66.6582 34.4817L2.65416 34.4817C1.18829 34.4817 -3.04163e-05 33.2934 -3.02913e-05 31.8275L-2.90491e-05 17.2536L-2.78068e-05 2.6797C-2.76819e-05 1.21383 1.1883 0.0255089 2.65416 0.025509L70.7871 0.0255151C73.0961 0.0255153 73.5203 3.31422 71.2867 3.90005C71.17 3.93066 71.0507 3.95049 70.9304 3.95927L67.5086 4.20898C65.5238 4.35382 65.1676 7.11736 67.0508 7.76075C68.949 8.40927 68.5672 11.1996 66.5646 11.3144L62.9393 11.5222C60.3847 11.6686 59.6277 15.075 61.8797 16.2897L64.7612 17.8439C66.3439 18.6976 66.6375 20.8451 65.3418 22.0922L63.6152 23.7542C62.2182 25.0989 62.6877 27.439 64.4953 28.1407L67.6187 29.3532Z" fill="#EFEFEF"/>
<path d="M22.4107 27.4912L17.3146 10.6743L16.5502 8.2112H20.1457L25.355 25.4811L23.5997 25.3113L28.1012 8.2112H31.8383L26.5724 27.4912H22.4107ZM10.1235 27.4912L4.8576 8.2112H8.5947L13.0962 25.3113L11.3409 25.4811L16.5502 8.2112H20.1457L19.4096 10.6743L14.2853 27.4912H10.1235ZM38.7025 27.7744C37.3247 27.7744 36.1167 27.4818 35.0787 26.8967C34.0406 26.2927 33.2384 25.4528 32.6722 24.377C32.106 23.3012 31.8229 22.0366 31.8229 20.5833C31.8229 19.1488 32.106 17.8937 32.6722 16.8179C33.2384 15.7231 34.0406 14.8738 35.0787 14.2698C36.1167 13.647 37.3247 13.3356 38.7025 13.3356C40.0992 13.3356 41.3072 13.647 42.3264 14.2698C43.3645 14.8927 44.1666 15.7515 44.7328 16.8462C45.2991 17.922 45.5822 19.1583 45.5822 20.555C45.5822 20.7626 45.5727 20.9702 45.5539 21.1778C45.5539 21.3665 45.535 21.527 45.4973 21.6591H34.8522V18.8846H42.6944L42.1282 20.2152C42.1282 19.045 41.8451 18.0919 41.2789 17.3558C40.7315 16.6197 39.8727 16.2516 38.7025 16.2516C37.6833 16.2516 36.8623 16.5725 36.2394 17.2142C35.6166 17.8371 35.3052 18.677 35.3052 19.7339V21.2344C35.3052 22.348 35.6166 23.2257 36.2394 23.8674C36.8812 24.4902 37.7494 24.8017 38.8441 24.8017C39.8067 24.8017 40.5616 24.6035 41.109 24.2071C41.6563 23.8108 42.1282 23.32 42.5246 22.7349L45.1009 24.2071C44.478 25.3585 43.6287 26.2455 42.5529 26.8684C41.4959 27.4724 40.2125 27.7744 38.7025 27.7744ZM55.2961 27.831C54.0881 27.831 53.0217 27.529 52.0969 26.925C51.1909 26.321 50.4832 25.4811 49.9735 24.4053C49.4639 23.3106 49.2091 22.0271 49.2091 20.555C49.2091 19.0261 49.4545 17.7238 49.9452 16.648C50.4548 15.5722 51.1626 14.7511 52.0686 14.1849C52.9746 13.6187 54.0409 13.3356 55.2678 13.3356C56.5323 13.3356 57.6459 13.6375 58.6085 14.2415C59.5711 14.8455 60.3166 15.6948 60.8451 16.7895C61.3925 17.8654 61.6661 19.1205 61.6661 20.555C61.6661 21.9705 61.3925 23.2257 60.8451 24.3204C60.3166 25.4151 59.5711 26.2739 58.6085 26.8967C57.6648 27.5196 56.5607 27.831 55.2961 27.831ZM47.8502 27.4912V8.2112H51.559V17.2708H51.2759V24.2071H51.559L50.6247 27.4912H47.8502ZM54.6449 24.4053C55.5886 24.4053 56.3625 24.0467 56.9665 23.3295C57.5893 22.6122 57.9007 21.6874 57.9007 20.555C57.9007 19.4225 57.5893 18.5071 56.9665 17.8088C56.3625 17.0915 55.5886 16.7329 54.6449 16.7329C53.7012 16.7329 52.9179 17.0915 52.2951 17.8088C51.6722 18.5071 51.3608 19.4319 51.3608 20.5833C51.3608 21.7157 51.6722 22.6406 52.2951 23.3578C52.9179 24.0561 53.7012 24.4053 54.6449 24.4053Z" fill="#9477FF"/>
<path d="M77.6853 27.831C75.7035 27.831 73.9765 27.4063 72.5043 26.557C71.051 25.6888 69.9185 24.5091 69.1069 23.018C68.3142 21.5081 67.9179 19.7905 67.9179 17.8654C67.9179 16.4121 68.1538 15.0814 68.6256 13.8735C69.1164 12.6466 69.7959 11.5897 70.6641 10.7026C71.5512 9.81551 72.5892 9.1266 73.7783 8.63587C74.9674 8.14514 76.2697 7.89977 77.6853 7.89977C79.9313 7.89977 81.7716 8.38106 83.206 9.34365C84.6404 10.3062 85.7635 11.6463 86.5751 13.3639L83.1211 14.6096C82.4227 13.4771 81.63 12.675 80.7429 12.2031C79.8558 11.7312 78.8366 11.4953 77.6853 11.4953C76.534 11.4953 75.5053 11.769 74.5993 12.3163C73.7123 12.8448 73.0045 13.5904 72.476 14.5529C71.9664 15.4967 71.7116 16.6008 71.7116 17.8654C71.7116 19.1111 71.9664 20.2152 72.476 21.1778C73.0045 22.1404 73.7123 22.8954 74.5993 23.4427C75.5053 23.9712 76.534 24.2354 77.6853 24.2354C78.8366 24.2354 79.8558 23.9995 80.7429 23.5276C81.63 23.0558 82.4227 22.2536 83.1211 21.1212L86.5751 22.3669C85.7635 24.0844 84.6404 25.4245 83.206 26.3871C81.7716 27.3497 79.9313 27.831 77.6853 27.831ZM97.5088 27.831C95.527 27.831 93.8 27.4063 92.3278 26.557C90.8745 25.6888 89.742 24.5091 88.9304 23.018C88.1377 21.5081 87.7414 19.7905 87.7414 17.8654C87.7414 16.4121 87.9773 15.0814 88.4491 13.8735C88.9399 12.6466 89.6193 11.5897 90.4876 10.7026C91.3746 9.81551 92.4127 9.1266 93.6018 8.63587C94.7909 8.14514 96.0932 7.89977 97.5088 7.89977C99.7548 7.89977 101.595 8.38106 103.029 9.34365C104.464 10.3062 105.587 11.6463 106.399 13.3639L102.945 14.6096C102.246 13.4771 101.453 12.675 100.566 12.2031C99.6793 11.7312 98.6601 11.4953 97.5088 11.4953C96.3575 11.4953 95.3288 11.769 94.4228 12.3163C93.5357 12.8448 92.828 13.5904 92.2995 14.5529C91.7899 15.4967 91.5351 16.6008 91.5351 17.8654C91.5351 19.1111 91.7899 20.2152 92.2995 21.1778C92.828 22.1404 93.5357 22.8954 94.4228 23.4427C95.3288 23.9712 96.3575 24.2354 97.5088 24.2354C98.6601 24.2354 99.6793 23.9995 100.566 23.5276C101.453 23.0558 102.246 22.2536 102.945 21.1212L106.399 22.3669C105.587 24.0844 104.464 25.4245 103.029 26.3871C101.595 27.3497 99.7548 27.831 97.5088 27.831Z" fill="#EFEFEF"/>
</svg>
