<svg width="369" height="150" viewBox="0 0 369 150" fill="none" xmlns="http://www.w3.org/2000/svg">
<path d="M156.616 61.4801C153.447 60.8863 153.879 56.2195 157.103 56.2171L237.191 56.1571C238.657 56.156 239.846 57.3435 239.848 58.8093L239.858 73.3771L239.868 87.9449C239.869 89.4108 238.682 90.6 237.216 90.6011L167.393 90.6535C164.163 90.6559 163.732 85.9774 166.908 85.3894L173.278 84.2103C176.06 83.6954 176.213 79.7664 173.48 79.0362L163.626 76.4037C161.351 75.7959 160.935 72.7461 162.965 71.5518L168.311 68.4071C170.425 67.1632 169.865 63.9625 167.454 63.5107L156.616 61.4801Z" fill="#9477FF"/>
<path d="M196.259 85.5085C198.998 86.5716 198.237 90.637 195.299 90.637L131.295 90.637C129.829 90.637 128.641 89.4487 128.641 87.9828L128.641 73.4089L128.641 58.835C128.641 57.3691 129.829 56.1808 131.295 56.1808L199.428 56.1808C201.737 56.1808 202.161 59.4695 199.927 60.0553C199.811 60.0859 199.691 60.1058 199.571 60.1145L196.149 60.3643C194.164 60.5091 193.808 63.2726 195.691 63.916C197.59 64.5645 197.208 67.3548 195.205 67.4697L191.58 67.6775C189.025 67.8239 188.268 71.2303 190.52 72.445L193.402 73.9992C194.985 74.8529 195.278 77.0004 193.983 78.2475L192.256 79.9095C190.859 81.2542 191.328 83.5943 193.136 84.296L196.259 85.5085Z" fill="#EFEFEF"/>
<path d="M151.051 83.6465L145.955 66.8296L145.191 64.3665H148.786L153.996 81.6364L152.24 81.4665L156.742 64.3665H160.479L155.213 83.6465H151.051ZM138.764 83.6465L133.498 64.3665H137.235L141.737 81.4665L139.982 81.6364L145.191 64.3665H148.786L148.05 66.8296L142.926 83.6465H138.764ZM167.343 83.9296C165.965 83.9296 164.757 83.6371 163.719 83.052C162.681 82.448 161.879 81.6081 161.313 80.5323C160.747 79.4564 160.464 78.1919 160.464 76.7385C160.464 75.3041 160.747 74.049 161.313 72.9731C161.879 71.8784 162.681 71.0291 163.719 70.4251C164.757 69.8023 165.965 69.4908 167.343 69.4908C168.74 69.4908 169.948 69.8023 170.967 70.4251C172.005 71.048 172.807 71.9067 173.374 73.0014C173.94 74.0773 174.223 75.3135 174.223 76.7102C174.223 76.9178 174.213 77.1255 174.195 77.3331C174.195 77.5218 174.176 77.6823 174.138 77.8144H163.493V75.0399H171.335L170.769 76.3705C170.769 75.2003 170.486 74.2471 169.92 73.511C169.372 72.7749 168.513 72.4069 167.343 72.4069C166.324 72.4069 165.503 72.7278 164.88 73.3695C164.257 73.9923 163.946 74.8322 163.946 75.8892V77.3897C163.946 78.5033 164.257 79.3809 164.88 80.0227C165.522 80.6455 166.39 80.9569 167.485 80.9569C168.447 80.9569 169.202 80.7588 169.75 80.3624C170.297 79.966 170.769 79.4753 171.165 78.8902L173.742 80.3624C173.119 81.5137 172.269 82.4008 171.194 83.0237C170.137 83.6276 168.853 83.9296 167.343 83.9296ZM183.937 83.9863C182.729 83.9863 181.662 83.6843 180.738 83.0803C179.832 82.4763 179.124 81.6364 178.614 80.5606C178.105 79.4659 177.85 78.1824 177.85 76.7102C177.85 75.1814 178.095 73.8791 178.586 72.8033C179.096 71.7274 179.803 70.9064 180.709 70.3402C181.615 69.7739 182.682 69.4908 183.908 69.4908C185.173 69.4908 186.287 69.7928 187.249 70.3968C188.212 71.0008 188.957 71.8501 189.486 72.9448C190.033 74.0206 190.307 75.2758 190.307 76.7102C190.307 78.1258 190.033 79.3809 189.486 80.4756C188.957 81.5703 188.212 82.4291 187.249 83.052C186.306 83.6748 185.201 83.9863 183.937 83.9863ZM176.491 83.6465V64.3665H180.2V73.4261H179.917V80.3624H180.2L179.265 83.6465H176.491ZM183.286 80.5606C184.229 80.5606 185.003 80.202 185.607 79.4847C186.23 78.7675 186.541 77.8427 186.541 76.7102C186.541 75.5778 186.23 74.6624 185.607 73.964C185.003 73.2468 184.229 72.8882 183.286 72.8882C182.342 72.8882 181.559 73.2468 180.936 73.964C180.313 74.6624 180.002 75.5872 180.002 76.7385C180.002 77.871 180.313 78.7958 180.936 79.5131C181.559 80.2114 182.342 80.5606 183.286 80.5606Z" fill="#9477FF"/>
<path d="M206.326 83.9863C204.344 83.9863 202.617 83.5616 201.145 82.7122C199.692 81.844 198.559 80.6644 197.748 79.1733C196.955 77.6634 196.559 75.9458 196.559 74.0206C196.559 72.5673 196.795 71.2367 197.266 70.0287C197.757 68.8019 198.437 67.745 199.305 66.8579C200.192 65.9708 201.23 65.2819 202.419 64.7911C203.608 64.3004 204.91 64.055 206.326 64.055C208.572 64.055 210.412 64.5363 211.847 65.4989C213.281 66.4615 214.404 67.8016 215.216 69.5191L211.762 70.7648C211.063 69.6324 210.271 68.8302 209.384 68.3584C208.497 67.8865 207.477 67.6506 206.326 67.6506C205.175 67.6506 204.146 67.9243 203.24 68.4716C202.353 69.0001 201.645 69.7456 201.117 70.7082C200.607 71.6519 200.352 72.7561 200.352 74.0206C200.352 75.2663 200.607 76.3705 201.117 77.3331C201.645 78.2957 202.353 79.0506 203.24 79.598C204.146 80.1265 205.175 80.3907 206.326 80.3907C207.477 80.3907 208.497 80.1548 209.384 79.6829C210.271 79.2111 211.063 78.4089 211.762 77.2765L215.216 78.5222C214.404 80.2397 213.281 81.5798 211.847 82.5424C210.412 83.505 208.572 83.9863 206.326 83.9863ZM226.149 83.9863C224.168 83.9863 222.441 83.5616 220.969 82.7122C219.515 81.844 218.383 80.6644 217.571 79.1733C216.778 77.6634 216.382 75.9458 216.382 74.0206C216.382 72.5673 216.618 71.2367 217.09 70.0287C217.581 68.8019 218.26 67.745 219.128 66.8579C220.015 65.9708 221.053 65.2819 222.243 64.7911C223.432 64.3004 224.734 64.055 226.149 64.055C228.396 64.055 230.236 64.5363 231.67 65.4989C233.105 66.4615 234.228 67.8016 235.039 69.5191L231.585 70.7648C230.887 69.6324 230.094 68.8302 229.207 68.3584C228.32 67.8865 227.301 67.6506 226.149 67.6506C224.998 67.6506 223.97 67.9243 223.064 68.4716C222.176 69.0001 221.469 69.7456 220.94 70.7082C220.431 71.6519 220.176 72.7561 220.176 74.0206C220.176 75.2663 220.431 76.3705 220.94 77.3331C221.469 78.2957 222.176 79.0506 223.064 79.598C223.97 80.1265 224.998 80.3907 226.149 80.3907C227.301 80.3907 228.32 80.1548 229.207 79.6829C230.094 79.2111 230.887 78.4089 231.585 77.2765L235.039 78.5222C234.228 80.2397 233.105 81.5798 231.67 82.5424C230.236 83.505 228.396 83.9863 226.149 83.9863Z" fill="#EFEFEF"/>
<mask id="path-4-inside-1_15_29" fill="white">
<rect x="291.066" width="77.8626" height="149.016" rx="2"/>
</mask>
<rect x="291.066" width="77.8626" height="149.016" rx="2" stroke="#E8E8E8" stroke-width="6" stroke-dasharray="8 8" mask="url(#path-4-inside-1_15_29)"/>
<mask id="path-5-inside-2_15_29" fill="white">
<rect x="6.10352e-05" width="77.8626" height="149.016" rx="2"/>
</mask>
<rect x="6.10352e-05" width="77.8626" height="149.016" rx="2" stroke="#E8E8E8" stroke-width="6" stroke-dasharray="8 8" mask="url(#path-5-inside-2_15_29)"/>
<g filter="url(#filter0_d_15_29)">
<rect x="6.27643" y="6.43427" width="65.3097" height="136.147" rx="2.65" fill="#77B2FF"/>
</g>
<path d="M27.5932 81.8189C26.3741 81.8189 25.3117 81.5576 24.4061 81.0352C23.5121 80.5011 22.8154 79.7754 22.3162 78.8582C21.8285 77.9293 21.5847 76.8728 21.5847 75.6885C21.5847 74.7945 21.7298 73.9759 22.0201 73.2328C22.322 72.4781 22.7399 71.8279 23.274 71.2822C23.8197 70.7365 24.4583 70.3128 25.1898 70.0109C25.9213 69.709 26.7224 69.5581 27.5932 69.5581C28.9749 69.5581 30.1069 69.8541 30.9893 70.4463C31.8717 71.0384 32.5625 71.8628 33.0618 72.9193L30.937 73.6856C30.5075 72.989 30.0198 72.4956 29.4741 72.2053C28.9284 71.915 28.3014 71.7699 27.5932 71.7699C26.8849 71.7699 26.2522 71.9382 25.6949 72.275C25.1492 72.6001 24.7138 73.0587 24.3887 73.6508C24.0752 74.2313 23.9184 74.9106 23.9184 75.6885C23.9184 76.4548 24.0752 77.134 24.3887 77.7261C24.7138 78.3183 25.1492 78.7827 25.6949 79.1194C26.2522 79.4445 26.8849 79.6071 27.5932 79.6071C28.3014 79.6071 28.9284 79.4619 29.4741 79.1717C30.0198 78.8814 30.5075 78.3879 30.937 77.6913L33.0618 78.4576C32.5625 79.5142 31.8717 80.3385 30.9893 80.9307C30.1069 81.5228 28.9749 81.8189 27.5932 81.8189ZM38.0462 79.9554V71.4216H40.2231V79.9554H38.0462ZM35.0158 76.8205V74.6609H43.3928V76.8205H35.0158ZM49.7135 79.9554V71.4216H51.8905V79.9554H49.7135ZM46.6831 76.8205V74.6609H55.0602V76.8205H46.6831Z" fill="#EFEFEF"/>
<g filter="url(#filter1_d_15_29)">
<rect x="297.342" y="6.43427" width="65.3097" height="38.7309" rx="2.65" fill="#FF9050"/>
</g>
<path d="M315.636 31.4343V19.574H317.918V31.4343H315.636ZM308.374 31.4343V19.574H310.655V31.4343H308.374ZM309.854 26.7145V24.5376H316.385V26.7145H309.854ZM322.856 31.4343V20.8105H325.155V31.4343H322.856ZM319.286 21.751V19.574H328.83V21.751H319.286ZM329.463 31.4343L331.588 19.574H333.626L336.604 27.864H336.534L339.512 19.574H341.55L343.675 31.4343H341.358L340.505 26.0179C340.377 25.2864 340.267 24.555 340.174 23.8235C340.093 23.0804 340.029 22.3431 339.983 21.6117H340.61C340.412 22.436 340.215 23.1965 340.017 23.8932C339.832 24.5782 339.611 25.2806 339.356 26.0005L337.457 31.2775H335.681L333.783 26.0005C333.527 25.2806 333.301 24.5782 333.103 23.8932C332.906 23.1965 332.714 22.436 332.529 21.6117H333.138C333.103 22.3431 333.039 23.0804 332.947 23.8235C332.865 24.555 332.761 25.2864 332.633 26.0179L331.78 31.4343H329.463ZM352.42 31.4343H345.315V19.574H347.596V29.9713L347.091 29.2573H352.42V31.4343Z" fill="#EFEFEF"/>
<g filter="url(#filter2_d_15_29)">
<rect x="297.342" y="55.1425" width="65.3097" height="38.7309" rx="2.65" fill="#FFD13A"/>
</g>
<path d="M324.872 78.2093C325.371 78.2093 325.754 78.0584 326.021 77.7565C326.289 77.4546 326.422 77.0367 326.422 76.5026V68.2823H328.738V76.4852C328.738 77.2515 328.587 77.9307 328.286 78.5228C327.995 79.1034 327.56 79.562 326.979 79.8987C326.41 80.2354 325.708 80.4037 324.872 80.4037C324.048 80.4037 323.345 80.2528 322.765 79.9509C322.184 79.6374 321.743 79.1904 321.441 78.6099C321.151 78.0294 321.006 77.3443 321.006 76.5548V75.8582H323.305V76.4852C323.305 77.0657 323.444 77.5011 323.723 77.7914C324.001 78.07 324.384 78.2093 324.872 78.2093ZM334.888 80.4212C334.226 80.4212 333.599 80.3225 333.007 80.1251C332.415 79.9277 331.881 79.62 331.405 79.202C330.94 78.7841 330.546 78.2384 330.221 77.5649L332.032 76.4677C332.392 77.0831 332.816 77.5417 333.303 77.8436C333.791 78.1455 334.354 78.2964 334.993 78.2964C335.573 78.2964 336.014 78.1745 336.316 77.9307C336.618 77.6752 336.769 77.3385 336.769 76.9206C336.769 76.6535 336.699 76.4271 336.56 76.2413C336.432 76.044 336.2 75.8582 335.863 75.684C335.527 75.5099 335.039 75.3531 334.4 75.2138C333.448 74.9816 332.699 74.6913 332.154 74.343C331.62 73.9947 331.242 73.5883 331.022 73.1239C330.801 72.6478 330.691 72.1254 330.691 71.5564C330.691 70.8714 330.853 70.2735 331.178 69.7626C331.515 69.2401 331.991 68.8279 332.607 68.5261C333.222 68.2242 333.953 68.0733 334.801 68.0733C335.776 68.0733 336.595 68.2648 337.257 68.648C337.918 69.0195 338.458 69.5246 338.876 70.1632L337.065 71.3997C336.74 70.9817 336.368 70.6856 335.95 70.5115C335.544 70.3257 335.126 70.2328 334.697 70.2328C334.139 70.2328 333.71 70.3431 333.408 70.5637C333.117 70.7843 332.972 71.092 332.972 71.4868C332.972 71.8351 333.117 72.137 333.408 72.3924C333.71 72.6362 334.29 72.8626 335.149 73.0716C336.125 73.3038 336.903 73.5883 337.483 73.925C338.064 74.2617 338.476 74.6681 338.72 75.1441C338.975 75.6202 339.103 76.1949 339.103 76.8683C339.103 77.5417 338.929 78.1455 338.58 78.6796C338.244 79.2137 337.756 79.6374 337.117 79.9509C336.49 80.2644 335.747 80.4212 334.888 80.4212Z" fill="#EFEFEF"/>
<g filter="url(#filter3_d_15_29)">
<rect x="297.342" y="103.851" width="65.3097" height="38.7309" rx="2.65" fill="#A550FF"/>
</g>
<path d="M314.898 128.851L311.763 118.506L311.293 116.99H313.505L316.709 127.614L315.629 127.51L318.398 116.99H320.697L317.458 128.851H314.898ZM307.339 128.851L304.1 116.99H306.399L309.168 127.51L308.088 127.614L311.293 116.99H313.505L313.052 118.506L309.899 128.851H307.339ZM322.713 124.34H328.565V126.465H322.713V124.34ZM320.24 128.851L324.455 116.99H327.12L331.195 128.851H328.896L325.465 118.558H326.127L322.539 128.851H320.24ZM336.308 129.129C335.646 129.129 335.019 129.031 334.427 128.833C333.835 128.636 333.301 128.328 332.825 127.91C332.361 127.492 331.966 126.947 331.641 126.273L333.452 125.176C333.812 125.791 334.236 126.25 334.723 126.552C335.211 126.854 335.774 127.005 336.413 127.005C336.993 127.005 337.434 126.883 337.736 126.639C338.038 126.383 338.189 126.047 338.189 125.629C338.189 125.362 338.119 125.135 337.98 124.95C337.852 124.752 337.62 124.566 337.284 124.392C336.947 124.218 336.459 124.061 335.821 123.922C334.869 123.69 334.12 123.4 333.574 123.051C333.04 122.703 332.663 122.296 332.442 121.832C332.221 121.356 332.111 120.834 332.111 120.265C332.111 119.58 332.274 118.982 332.599 118.471C332.935 117.948 333.411 117.536 334.027 117.234C334.642 116.932 335.374 116.781 336.221 116.781C337.196 116.781 338.015 116.973 338.677 117.356C339.339 117.728 339.879 118.233 340.296 118.871L338.485 120.108C338.16 119.69 337.789 119.394 337.371 119.22C336.964 119.034 336.546 118.941 336.117 118.941C335.559 118.941 335.13 119.051 334.828 119.272C334.538 119.493 334.392 119.8 334.392 120.195C334.392 120.543 334.538 120.845 334.828 121.101C335.13 121.344 335.71 121.571 336.569 121.78C337.545 122.012 338.323 122.296 338.903 122.633C339.484 122.97 339.896 123.376 340.14 123.852C340.395 124.328 340.523 124.903 340.523 125.576C340.523 126.25 340.349 126.854 340 127.388C339.664 127.922 339.176 128.346 338.537 128.659C337.911 128.973 337.167 129.129 336.308 129.129ZM341.471 128.851L343.596 116.99H345.633L348.611 125.28H348.542L351.52 116.99H353.557L355.682 128.851H353.366L352.513 123.434C352.385 122.703 352.275 121.971 352.182 121.24C352.1 120.497 352.037 119.76 351.99 119.028H352.617C352.42 119.852 352.222 120.613 352.025 121.31C351.839 121.995 351.619 122.697 351.363 123.417L349.465 128.694H347.688L345.79 123.417C345.535 122.697 345.308 121.995 345.111 121.31C344.913 120.613 344.722 119.852 344.536 119.028H345.146C345.111 119.76 345.047 120.497 344.954 121.24C344.873 121.971 344.768 122.703 344.641 123.434L343.787 128.851H341.471Z" fill="#EFEFEF"/>
<path d="M246.892 72.0195C246.119 72.0195 245.492 72.6463 245.492 73.4195C245.492 74.1927 246.119 74.8195 246.892 74.8195V73.4195V72.0195ZM285.611 74.4094C286.157 73.8627 286.157 72.9763 285.611 72.4295L276.701 63.52C276.154 62.9733 275.268 62.9733 274.721 63.52C274.174 64.0667 274.174 64.9532 274.721 65.4999L282.641 73.4195L274.721 81.3391C274.174 81.8858 274.174 82.7723 274.721 83.319C275.268 83.8657 276.154 83.8657 276.701 83.319L285.611 74.4094ZM246.892 73.4195V74.8195H284.621V73.4195V72.0195H246.892V73.4195Z" fill="#E8E8E8"/>
<path d="M84.3076 72.0195C83.5344 72.0195 82.9076 72.6463 82.9076 73.4195C82.9076 74.1927 83.5344 74.8195 84.3076 74.8195V73.4195V72.0195ZM123.026 74.4094C123.573 73.8627 123.573 72.9763 123.026 72.4295L114.117 63.52C113.57 62.9733 112.683 62.9733 112.137 63.52C111.59 64.0667 111.59 64.9532 112.137 65.4999L120.056 73.4195L112.137 81.3391C111.59 81.8858 111.59 82.7723 112.137 83.319C112.683 83.8657 113.57 83.8657 114.117 83.319L123.026 74.4094ZM84.3076 73.4195V74.8195H122.036V73.4195V72.0195H84.3076V73.4195Z" fill="#E8E8E8"/>
<defs>
<filter id="filter0_d_15_29" x="6.27643" y="6.43427" width="65.3098" height="136.147" filterUnits="userSpaceOnUse" color-interpolation-filters="sRGB">
<feFlood flood-opacity="0" result="BackgroundImageFix"/>
<feColorMatrix in="SourceAlpha" type="matrix" values="0 0 0 0 0 0 0 0 0 0 0 0 0 0 0 0 0 0 127 0" result="hardAlpha"/>
<feMorphology radius="12" operator="erode" in="SourceAlpha" result="effect1_dropShadow_15_29"/>
<feOffset dy="4"/>
<feGaussianBlur stdDeviation="2"/>
<feComposite in2="hardAlpha" operator="out"/>
<feColorMatrix type="matrix" values="0 0 0 0 0 0 0 0 0 0 0 0 0 0 0 0 0 0 0.14 0"/>
<feBlend mode="normal" in2="BackgroundImageFix" result="effect1_dropShadow_15_29"/>
<feBlend mode="normal" in="SourceGraphic" in2="effect1_dropShadow_15_29" result="shape"/>
</filter>
<filter id="filter1_d_15_29" x="297.342" y="6.43427" width="65.3098" height="38.7309" filterUnits="userSpaceOnUse" color-interpolation-filters="sRGB">
<feFlood flood-opacity="0" result="BackgroundImageFix"/>
<feColorMatrix in="SourceAlpha" type="matrix" values="0 0 0 0 0 0 0 0 0 0 0 0 0 0 0 0 0 0 127 0" result="hardAlpha"/>
<feMorphology radius="12" operator="erode" in="SourceAlpha" result="effect1_dropShadow_15_29"/>
<feOffset dy="4"/>
<feGaussianBlur stdDeviation="2"/>
<feComposite in2="hardAlpha" operator="out"/>
<feColorMatrix type="matrix" values="0 0 0 0 0 0 0 0 0 0 0 0 0 0 0 0 0 0 0.14 0"/>
<feBlend mode="normal" in2="BackgroundImageFix" result="effect1_dropShadow_15_29"/>
<feBlend mode="normal" in="SourceGraphic" in2="effect1_dropShadow_15_29" result="shape"/>
</filter>
<filter id="filter2_d_15_29" x="297.342" y="55.1425" width="65.3098" height="38.7309" filterUnits="userSpaceOnUse" color-interpolation-filters="sRGB">
<feFlood flood-opacity="0" result="BackgroundImageFix"/>
<feColorMatrix in="SourceAlpha" type="matrix" values="0 0 0 0 0 0 0 0 0 0 0 0 0 0 0 0 0 0 127 0" result="hardAlpha"/>
<feMorphology radius="12" operator="erode" in="SourceAlpha" result="effect1_dropShadow_15_29"/>
<feOffset dy="4"/>
<feGaussianBlur stdDeviation="2"/>
<feComposite in2="hardAlpha" operator="out"/>
<feColorMatrix type="matrix" values="0 0 0 0 0 0 0 0 0 0 0 0 0 0 0 0 0 0 0.14 0"/>
<feBlend mode="normal" in2="BackgroundImageFix" result="effect1_dropShadow_15_29"/>
<feBlend mode="normal" in="SourceGraphic" in2="effect1_dropShadow_15_29" result="shape"/>
</filter>
<filter id="filter3_d_15_29" x="297.342" y="103.851" width="65.3098" height="38.7309" filterUnits="userSpaceOnUse" color-interpolation-filters="sRGB">
<feFlood flood-opacity="0" result="BackgroundImageFix"/>
<feColorMatrix in="SourceAlpha" type="matrix" values="0 0 0 0 0 0 0 0 0 0 0 0 0 0 0 0 0 0 127 0" result="hardAlpha"/>
<feMorphology radius="12" operator="erode" in="SourceAlpha" result="effect1_dropShadow_15_29"/>
<feOffset dy="4"/>
<feGaussianBlur stdDeviation="2"/>
<feComposite in2="hardAlpha" operator="out"/>
<feColorMatrix type="matrix" values="0 0 0 0 0 0 0 0 0 0 0 0 0 0 0 0 0 0 0.14 0"/>
<feBlend mode="normal" in2="BackgroundImageFix" result="effect1_dropShadow_15_29"/>
<feBlend mode="normal" in="SourceGraphic" in2="effect1_dropShadow_15_29" result="shape"/>
</filter>
</defs>
</svg>
